Coordinates
version=1
nRows=16
nColumns=40
inDegrees=yes

Units are S.I. units (second, meters, Newtons, ...)
Angles are in degrees.

endheader
time	pelvis_tilt	pelvis_list	pelvis_rotation	pelvis_tx	pelvis_ty	pelvis_tz	hip_flexion_r	hip_adduction_r	hip_rotation_r	knee_angle_r	knee_angle_r_beta	ankle_angle_r	subtalar_angle_r	mtp_angle_r	hip_flexion_l	hip_adduction_l	hip_rotation_l	knee_angle_l	knee_angle_l_beta	ankle_angle_l	subtalar_angle_l	mtp_angle_l	lumbar_extension	lumbar_bending	lumbar_rotation	arm_flex_r	arm_add_r	arm_rot_r	elbow_flex_r	pro_sup_r	wrist_flex_r	wrist_dev_r	arm_flex_l	arm_add_l	arm_rot_l	elbow_flex_l	pro_sup_l	wrist_flex_l	wrist_dev_l
     35.27500000	     -6.19322256	     -4.23473079	     -1.94690051	      0.99178806	      0.93169763	      0.45893986	     36.45153652	     -5.85411770	     -5.97244030	     63.15510288	     63.15510288	      2.04798720	    -11.61944305	     -0.92012434	     13.75704563	     -5.34256601	     -6.38495807	     19.66291970	     19.66291970	     14.86877156	     -4.90389442	     -0.26665439	    -11.71904908	      4.01657244	      2.20792049	      7.48611620	    -16.25999866	     -0.97150780	     33.15712730	     46.58725500	      0.00000000	      0.00000000	     17.35004661	    -17.38295348	      3.83835814	     55.05035745	     45.86407468	      0.00000000	      0.00000000
     35.28685714	     -6.20470707	     -4.32235153	     -2.08983241	      0.99185279	      0.93178626	      0.45952032	     36.91169504	     -5.52279486	     -5.87426923	     59.89801939	     59.89801939	      1.96236855	    -10.94578833	     -0.91255022	     12.80599008	     -5.40174665	     -6.41816149	     19.01978829	     19.01978829	     15.06668254	     -4.90465593	     -0.57747796	    -11.77955688	      4.27104428	      2.31279986	      5.39125569	    -16.15564905	     -0.76932082	     31.91084055	     46.59904708	      0.00000000	      0.00000000	     18.44937575	    -17.88532556	      3.53665406	     57.13792755	     45.93666350	      0.00000000	      0.00000000
     35.29871429	     -6.17929000	     -4.34395452	     -2.28448908	      0.99202394	      0.93168264	      0.46032298	     37.16147788	     -5.19781514	     -5.74259280	     56.30442401	     56.30442401	      1.89715709	    -10.31915744	     -1.06501336	     11.77208153	     -5.40052993	     -6.50197470	     18.32628944	     18.32628944	     15.20770023	     -4.96446337	     -1.05606295	    -11.92218491	      4.36563684	      2.59587819	      3.21039652	    -16.01441470	     -0.57692653	     30.52993087	     46.61368061	      0.00000000	      0.00000000	     19.39749580	    -18.31571606	      3.17477929	     60.14757592	     46.03129033	      0.00000000	      0.00000000
     35.31057143	     -6.23593480	     -4.41572950	     -2.44918327	      0.99223877	      0.93133513	      0.46123178	     37.26895163	     -4.82131033	     -5.74511947	     52.33045365	     52.33045365	      1.87718663	     -9.60450712	     -1.04417443	     10.88946100	     -5.46722027	     -6.51250038	     17.74461918	     17.74461918	     15.40971346	     -4.97148728	     -1.46654699	    -11.96286836	      4.53257480	      2.61054972	      1.20397728	    -15.78522325	     -0.47019748	     29.44344334	     46.62591229	      0.00000000	      0.00000000	     20.19348671	    -18.81374221	      2.72661734	     62.67414856	     46.12150778	      0.00000000	      0.00000000
     35.32242857	     -6.20899425	     -4.37155831	     -2.67496546	      0.99266111	      0.93090097	      0.46223325	     37.13330290	     -4.54427837	     -5.78869551	     48.10962905	     48.10962905	      1.66571576	     -8.82396118	     -1.15624602	      9.87308588	     -5.41686826	     -6.71379712	     17.12074715	     17.12074715	     15.53209046	     -5.00733399	     -2.03515863	    -12.06826745	      4.57263831	      2.74509137	     -0.84196217	    -15.49586469	     -0.45005489	     28.32131732	     46.64283870	      0.00000000	      0.00000000	     20.74151572	    -19.27932232	      2.07365438	     66.25772585	     46.24924233	      0.00000000	      0.00000000
     35.33428571	     -6.27665362	     -4.36255821	     -2.84907387	      0.99318869	      0.93017009	      0.46332607	     36.82533771	     -4.22470043	     -6.04290060	     43.50944092	     43.50944092	      1.12997303	     -8.04295969	     -2.10798244	      8.97079614	     -5.39991260	     -6.79436710	     16.48788263	     16.48788263	     15.39514335	     -5.20474887	     -3.24847168	    -12.05196371	      4.66858874	      1.86503284	     -2.07096037	    -15.02369521	     -0.71116013	     27.10943486	     46.67097284	      0.00000000	      0.00000000	     20.01427922	    -20.30971949	      0.30687424	     70.99728791	     46.53179565	      0.00000000	      0.00000000
     35.34614286	     -6.30077261	     -4.39127011	     -3.04070534	      0.99388448	      0.92945132	      0.46460594	     36.30059894	     -3.84877476	     -6.51109306	     38.79420486	     38.79420486	      0.97103797	     -6.79346267	     -1.37718878	      8.08609346	     -5.45777834	     -6.96546466	     16.06369435	     16.06369435	     15.74715221	     -5.13936025	     -3.39251007	    -11.98756044	      4.78834204	      2.04210515	     -4.09758259	    -14.77715194	     -0.66687356	     26.28073849	     46.67995609	      0.00000000	      0.00000000	     21.01765949	    -20.49543564	     -0.18595606	     72.67796249	     46.60858731	      0.00000000	      0.00000000
     35.35800000	     -6.19439454	     -4.22072084	     -3.28226064	      0.99494755	      0.92851959	      0.46595387	     35.60080240	     -3.61500698	     -6.89962856	     34.25204318	     34.25204318	      0.90816260	     -5.10938147	     -0.64542316	      6.96954929	     -5.30197895	     -7.32620653	     15.51480987	     15.51480987	     16.07193211	     -4.82088337	     -3.84988177	    -12.16633334	      4.66783426	      2.13725030	     -6.11774359	    -14.43937173	     -1.11008519	     25.87406510	     46.70025843	      0.00000000	      0.00000000	     21.19160111	    -20.79704876	     -1.18941215	     76.66454755	     46.78870909	      0.00000000	      0.00000000
     35.36985714	     -6.12781124	     -4.08709348	     -3.48098497	      0.99614731	      0.92745327	      0.46747171	     34.78055167	     -3.34036205	     -7.61319878	     29.72596102	     29.72596102	      0.76916478	     -3.21236850	      0.69466682	      5.92222852	     -5.19441241	     -7.65108135	     15.01829321	     15.01829321	     16.38842212	     -4.52990564	     -4.20036947	    -12.20848980	      4.57956948	      2.10977855	     -7.98954132	    -14.04875120	     -1.57784640	     25.51908422	     46.72297390	      0.00000000	      0.00000000	     21.49887085	    -21.06627939	     -2.18527628	     79.76634620	     46.95330167	      0.00000000	      0.00000000
     35.38171429	     -5.98985723	     -3.94065468	     -3.67899758	      0.99761792	      0.92623922	      0.46914376	     33.86857607	     -3.04585247	     -8.47310390	     25.56358576	     25.56358576	      0.74444677	     -1.12139610	      2.63738776	      4.80051963	     -5.07751583	     -8.00030019	     14.57297251	     14.57297251	     16.77187546	     -4.21485205	     -4.54179943	    -12.29539020	      4.46621186	      2.04462219	     -9.80529049	    -13.66248228	     -2.18545224	     25.36632538	     46.74744162	      0.00000000	      0.00000000	     21.72371183	    -21.33739111	     -3.13426648	     82.81079111	     47.11760942	      0.00000000	      0.00000000
     35.39357143	     -5.83757547	     -3.83396416	     -3.84221120	      0.99926851	      0.92487796	      0.47099453	     32.88075093	     -2.64175948	     -9.34805290	     21.70775582	     21.70775582	      0.33487190	      0.62782828	      4.05306449	      3.68713395	     -4.99773590	     -8.22277177	     14.19095708	     14.19095708	     17.22522033	     -4.03272368	     -4.73085074	    -12.34936220	      4.40790594	      2.22038856	    -11.59044278	    -13.29190455	     -2.32667153	     24.90623323	     46.75706932	      0.00000000	      0.00000000	     22.39836482	    -21.39893676	     -3.57979086	     84.69570158	     47.19719079	      0.00000000	      0.00000000
     35.40542857	     -5.66286539	     -3.60411447	     -4.04744425	      1.00119232	      0.92330000	      0.47303875	     32.16790748	     -2.45783548	    -10.56465205	     18.96528096	     18.96528096	      0.85842296	      2.96175594	      7.48509576	      2.49043775	     -4.81106194	     -8.72446036	     13.74207776	     13.74207776	     17.69457175	     -3.47849086	     -5.01646976	    -12.44511065	      4.14990071	      1.95910876	    -13.29919182	    -12.85104686	     -3.44819398	     25.66296215	     46.77759190	      0.00000000	      0.00000000	     22.05937439	    -21.81574728	     -4.80500340	     88.57220941	     47.40653262	      0.00000000	      0.00000000
     35.41728571	     -5.49458124	     -3.47136337	     -4.21385521	      1.00317368	      0.92162523	      0.47532216	     31.38506133	     -2.06956733	    -11.48278218	     16.52108343	     16.52108343	      0.47464384	      4.28338339	      8.60939592	      1.34090125	     -4.71386235	     -8.95033597	     13.36842354	     13.36842354	     18.20138555	     -3.28819807	     -5.10626260	    -12.46155051	      4.02038577	      2.25343552	    -14.88242164	    -12.40796621	     -3.55392367	     25.25276323	     46.78294911	      0.00000000	      0.00000000	     22.70433699	    -21.72355061	     -5.16608833	     90.29399642	     47.47712767	      0.00000000	      0.00000000
     35.42914286	     -5.34704750	     -3.31786916	     -4.38388956	      1.00531045	      0.91981740	      0.47777401	     30.89301825	     -1.82674715	    -12.62526629	     15.17632897	     15.17632897	      0.72286559	      5.79153899	     10.54887429	      0.24587036	     -4.63898309	     -9.39363846	     13.09464970	     13.09464970	     18.87646533	     -2.74236181	     -4.91192704	    -12.48010425	      3.84279176	      2.09047761	    -16.33180878	    -11.98256595	     -4.37658825	     25.93048175	     46.78268399	      0.00000000	      0.00000000	     22.48897769	    -22.00588498	     -6.05650774	     93.36080206	     47.64429988	      0.00000000	      0.00000000
     35.44100000	     -5.22564946	     -3.22612678	     -4.55546199	      1.00749183	      0.91793314	      0.48048287	     30.46762838	     -1.49411926	    -13.41834383	     14.37205428	     14.37205428	      0.56848977	      6.51778078	     10.85810161	     -0.79584982	     -4.63163424	     -9.67252303	     12.87586902	     12.87586902	     19.51887131	     -2.45288284	     -4.74637845	    -12.44344661	      3.72932025	      2.32804258	    -17.56040755	    -11.51896321	     -4.57194814	     25.85104827	     46.77808107	      0.00000000	      0.00000000	     22.82385670	    -21.93238134	     -6.45112850	     95.29220493	     47.73356653	      0.00000000	      0.00000000
     35.45285714	     -5.14279886	     -3.19604583	     -4.66545965	      1.00969350	      0.91596773	      0.48335273	     30.13077912	     -1.16257483	    -14.04425812	     14.12417908	     14.12417908	      0.24674380	      6.79461244	     10.09427633	     -1.62960676	     -4.75961171	     -9.99974822	     13.00473795	     13.00473795	     20.43666067	     -1.98701350	     -4.14967888	    -12.38233442	      3.67453873	      2.17825741	    -18.57001739	    -11.16500571	     -4.92048080	     26.29541557	     46.75497607	      0.00000000	      0.00000000	     22.62618703	    -22.10961406	     -7.11405067	     97.62040614	     47.86540063	      0.00000000	      0.00000000
